<?xml version='1.0' encoding='utf-8'?>
<mxfile host="app.diagrams.net"><diagram name="Valuation System ERD" id="valuation-system"><mxGraphModel dx="1520" dy="877" grid="1" gridSize="10" guides="1" tooltips="1" connect="1" arrows="1" fold="1" page="1" pageScale="1" pageWidth="850" pageHeight="1100"><root><mxCell id="0" /><mxCell id="1" parent="0" /><mxCell id="users" value="&lt;b&gt;Users&lt;/b&gt;&lt;br&gt;id&lt;br&gt;nameEn&lt;br&gt;nameAr&lt;br&gt;email&lt;br&gt;phone&lt;br&gt;gender&lt;br&gt;role&lt;br&gt;branch_id&lt;br&gt;password&lt;br&gt;timestamps" style="shape=swimlane;whiteSpace=wrap;html=1;" vertex="1" parent="1"><mxGeometry x="60" y="60" width="220" height="180" as="geometry" /></mxCell><mxCell id="clients" value="&lt;b&gt;Clients&lt;/b&gt;&lt;br&gt;id&lt;br&gt;name&lt;br&gt;email&lt;br&gt;phone&lt;br&gt;gender&lt;br&gt;organization&lt;br&gt;position&lt;br&gt;timestamps" style="shape=swimlane;whiteSpace=wrap;html=1;" vertex="1" parent="1"><mxGeometry x="60" y="260" width="220" height="180" as="geometry" /></mxCell><mxCell id="branches" value="&lt;b&gt;Branches&lt;/b&gt;&lt;br&gt;id&lt;br&gt;name&lt;br&gt;location&lt;br&gt;timestamps" style="shape=swimlane;whiteSpace=wrap;html=1;" vertex="1" parent="1"><mxGeometry x="60" y="460" width="220" height="180" as="geometry" /></mxCell><mxCell id="propertytypes" value="&lt;b&gt;PropertyTypes&lt;/b&gt;&lt;br&gt;id&lt;br&gt;name_en&lt;br&gt;name_ar&lt;br&gt;timestamps" style="shape=swimlane;whiteSpace=wrap;html=1;" vertex="1" parent="1"><mxGeometry x="60" y="660" width="220" height="180" as="geometry" /></mxCell><mxCell id="valuations" value="&lt;b&gt;Valuations&lt;/b&gt;&lt;br&gt;id&lt;br&gt;valuation_number&lt;br&gt;property_type_id&lt;br&gt;client_id&lt;br&gt;prepared_by&lt;br&gt;inspected_by&lt;br&gt;source_type&lt;br&gt;source_user_id&lt;br&gt;source_details&lt;br&gt;property_usage&lt;br&gt;property_description&lt;br&gt;coordinates&lt;br&gt;krooki_path&lt;br&gt;address_details&lt;br&gt;site_visit_date&lt;br&gt;report_submitted_at&lt;br&gt;report_approved_at&lt;br&gt;status&lt;br&gt;timestamps" style="shape=swimlane;whiteSpace=wrap;html=1;" vertex="1" parent="1"><mxGeometry x="320" y="60" width="220" height="180" as="geometry" /></mxCell><mxCell id="valuationattachments" value="&lt;b&gt;ValuationAttachments&lt;/b&gt;&lt;br&gt;id&lt;br&gt;valuation_id&lt;br&gt;type&lt;br&gt;file_path&lt;br&gt;file_name&lt;br&gt;uploaded_by&lt;br&gt;timestamps" style="shape=swimlane;whiteSpace=wrap;html=1;" vertex="1" parent="1"><mxGeometry x="320" y="260" width="220" height="180" as="geometry" /></mxCell><mxCell id="valuationtransfers" value="&lt;b&gt;ValuationTransfers&lt;/b&gt;&lt;br&gt;id&lt;br&gt;valuation_id&lt;br&gt;from_user_id&lt;br&gt;to_user_id&lt;br&gt;status&lt;br&gt;reason&lt;br&gt;timestamps" style="shape=swimlane;whiteSpace=wrap;html=1;" vertex="1" parent="1"><mxGeometry x="320" y="460" width="220" height="180" as="geometry" /></mxCell><mxCell id="commissions" value="&lt;b&gt;Commissions&lt;/b&gt;&lt;br&gt;id&lt;br&gt;user_id&lt;br&gt;valuation_id&lt;br&gt;amount&lt;br&gt;period&lt;br&gt;notified&lt;br&gt;timestamps" style="shape=swimlane;whiteSpace=wrap;html=1;" vertex="1" parent="1"><mxGeometry x="320" y="660" width="220" height="180" as="geometry" /></mxCell><mxCell id="notifications" value="&lt;b&gt;Notifications&lt;/b&gt;&lt;br&gt;id&lt;br&gt;valuation_id&lt;br&gt;channel&lt;br&gt;recipient&lt;br&gt;status&lt;br&gt;message&lt;br&gt;timestamps" style="shape=swimlane;whiteSpace=wrap;html=1;" vertex="1" parent="1"><mxGeometry x="580" y="60" width="220" height="180" as="geometry" /></mxCell><mxCell id="auditlogs" value="&lt;b&gt;AuditLogs&lt;/b&gt;&lt;br&gt;id&lt;br&gt;valuation_id&lt;br&gt;action&lt;br&gt;performed_by&lt;br&gt;reason&lt;br&gt;timestamps" style="shape=swimlane;whiteSpace=wrap;html=1;" vertex="1" parent="1"><mxGeometry x="580" y="260" width="220" height="180" as="geometry" /></mxCell><mxCell id="settings" value="&lt;b&gt;Settings&lt;/b&gt;&lt;br&gt;id&lt;br&gt;key&lt;br&gt;value&lt;br&gt;description&lt;br&gt;timestamps" style="shape=swimlane;whiteSpace=wrap;html=1;" vertex="1" parent="1"><mxGeometry x="580" y="460" width="220" height="180" as="geometry" /></mxCell><mxCell id="e1" style="endArrow=block;" edge="1" parent="1" source="branches" target="users"><mxGeometry relative="1" as="geometry" /></mxCell><mxCell id="e2" style="endArrow=block;" edge="1" parent="1" source="users" target="valuations"><mxGeometry relative="1" as="geometry" /></mxCell><mxCell id="e3" style="endArrow=block;" edge="1" parent="1" source="clients" target="valuations"><mxGeometry relative="1" as="geometry" /></mxCell><mxCell id="e4" style="endArrow=block;" edge="1" parent="1" source="propertytypes" target="valuations"><mxGeometry relative="1" as="geometry" /></mxCell><mxCell id="e5" style="endArrow=block;" edge="1" parent="1" source="valuations" target="valuationattachments"><mxGeometry relative="1" as="geometry" /></mxCell><mxCell id="e6" style="endArrow=block;" edge="1" parent="1" source="valuations" target="valuationtransfers"><mxGeometry relative="1" as="geometry" /></mxCell><mxCell id="e7" style="endArrow=block;" edge="1" parent="1" source="valuations" target="commissions"><mxGeometry relative="1" as="geometry" /></mxCell><mxCell id="e8" style="endArrow=block;" edge="1" parent="1" source="valuations" target="notifications"><mxGeometry relative="1" as="geometry" /></mxCell><mxCell id="e9" style="endArrow=block;" edge="1" parent="1" source="valuations" target="auditlogs"><mxGeometry relative="1" as="geometry" /></mxCell><mxCell id="e10" style="endArrow=block;" edge="1" parent="1" source="settings" target="valuations"><mxGeometry relative="1" as="geometry" /></mxCell></root></mxGraphModel></diagram></mxfile>